<svg xmlns="http://www.w3.org/2000/svg" viewBox="0 0 780 470" width="780" height="470"><defs><path id="b0" d="M1296 963Q1296 827 1234.0 720.0Q1172 613 1056.5 554.5Q941 496 782 496H432V0H137V1409H770Q1023 1409 1159.5 1292.5Q1296 1176 1296 963ZM999 958Q999 1180 737 1180H432V723H745Q867 723 933.0 783.5Q999 844 999 958Z"/><path id="b1" d="M129 0V209H478V1170L140 959V1180L493 1409H759V209H1082V0Z"/><path id="b2" d="M594 -20Q348 -20 214.0 126.5Q80 273 80 535Q80 803 215.0 952.5Q350 1102 598 1102Q789 1102 914.0 1006.0Q1039 910 1071 741L788 727Q776 810 728.0 859.5Q680 909 592 909Q375 909 375 546Q375 172 596 172Q676 172 730.0 222.5Q784 273 797 373L1079 360Q1064 249 999.5 162.0Q935 75 830.0 27.5Q725 -20 594 -20Z"/><path id="b3" d="M393 -20Q236 -20 148.0 65.5Q60 151 60 306Q60 474 169.5 562.0Q279 650 487 652L720 656V711Q720 817 683.0 868.5Q646 920 562 920Q484 920 447.5 884.5Q411 849 402 767L109 781Q136 939 253.5 1020.5Q371 1102 574 1102Q779 1102 890.0 1001.0Q1001 900 1001 714V320Q1001 229 1021.5 194.5Q1042 160 1090 160Q1122 160 1152 166V14Q1127 8 1107.0 3.0Q1087 -2 1067.0 -5.0Q1047 -8 1024.5 -10.0Q1002 -12 972 -12Q866 -12 815.5 40.0Q765 92 755 193H749Q631 -20 393 -20ZM720 501 576 499Q478 495 437.0 477.5Q396 460 374.5 424.0Q353 388 353 328Q353 251 388.5 213.5Q424 176 483 176Q549 176 603.5 212.0Q658 248 689.0 311.5Q720 375 720 446Z"/><path id="b4" d="M1167 545Q1167 277 1059.5 128.5Q952 -20 752 -20Q637 -20 553.0 30.0Q469 80 424 174H422Q422 139 417.5 78.0Q413 17 408 0H135Q143 93 143 247V1484H424V1070L420 894H424Q519 1102 770 1102Q962 1102 1064.5 956.5Q1167 811 1167 545ZM874 545Q874 729 820.0 818.0Q766 907 653 907Q539 907 479.5 811.5Q420 716 420 536Q420 364 478.5 268.0Q537 172 651 172Q874 172 874 545Z"/><path id="b5" d="M143 0V1484H424V0Z"/><path id="b6" d="M586 -20Q342 -20 211.0 124.5Q80 269 80 546Q80 814 213.0 958.0Q346 1102 590 1102Q823 1102 946.0 947.5Q1069 793 1069 495V487H375Q375 329 433.5 248.5Q492 168 600 168Q749 168 788 297L1053 274Q938 -20 586 -20ZM586 925Q487 925 433.5 856.0Q380 787 377 663H797Q789 794 734.0 859.5Q679 925 586 925Z"/><path id="b7" d="M399 -425Q242 -199 172.0 26.0Q102 251 102 531Q102 810 172.0 1034.5Q242 1259 399 1484H680Q522 1256 450.5 1030.0Q379 804 379 530Q379 257 450.0 32.5Q521 -192 680 -425Z"/><path id="b8" d="M524 -20Q305 -20 187.5 75.0Q70 170 31 382L324 425Q342 316 391.0 263.5Q440 211 526 211Q614 211 659.5 270.0Q705 329 705 439V1178H424V1409H999V446Q999 226 874.0 103.0Q749 -20 524 -20Z"/><path id="b9" d="M773 1181V0H478V1181H23V1409H1229V1181Z"/><path id="b10" d="M1133 0 1008 360H471L346 0H51L565 1409H913L1425 0ZM739 1192 733 1170Q723 1134 709.0 1088.0Q695 1042 537 582H942L803 987L760 1123Z"/><path id="b11" d="M806 211Q921 211 1029.0 244.5Q1137 278 1196 330V525H852V743H1466V225Q1354 110 1174.5 45.0Q995 -20 798 -20Q454 -20 269.0 170.5Q84 361 84 711Q84 1059 270.0 1244.5Q456 1430 805 1430Q1301 1430 1436 1063L1164 981Q1120 1088 1026.0 1143.0Q932 1198 805 1198Q597 1198 489.0 1072.0Q381 946 381 711Q381 472 492.5 341.5Q604 211 806 211Z"/><path id="b12" d="M2 -425Q162 -191 232.5 32.5Q303 256 303 530Q303 805 231.0 1031.5Q159 1258 2 1484H283Q441 1257 510.5 1032.0Q580 807 580 531Q580 253 510.5 28.0Q441 -197 283 -425Z"/><path id="b13" d="M473 892V0H193V892H35V1082H193V1195Q193 1342 271.0 1413.0Q349 1484 508 1484Q587 1484 686 1468V1287Q645 1296 604 1296Q532 1296 502.5 1267.5Q473 1239 473 1167V1082H686V892Z"/><path id="b14" d="M1171 542Q1171 279 1025.0 129.5Q879 -20 621 -20Q368 -20 224.0 130.0Q80 280 80 542Q80 803 224.0 952.5Q368 1102 627 1102Q892 1102 1031.5 957.5Q1171 813 1171 542ZM877 542Q877 735 814.0 822.0Q751 909 631 909Q375 909 375 542Q375 361 437.5 266.5Q500 172 618 172Q877 172 877 542Z"/><path id="b15" d="M143 0V828Q143 917 140.5 976.5Q138 1036 135 1082H403Q406 1064 411.0 972.5Q416 881 416 851H420Q461 965 493.0 1011.5Q525 1058 569.0 1080.5Q613 1103 679 1103Q733 1103 766 1088V853Q698 868 646 868Q541 868 482.5 783.0Q424 698 424 531V0Z"/><path id="b16" d="M795 212Q1062 212 1166 480L1423 383Q1340 179 1179.5 79.5Q1019 -20 795 -20Q455 -20 269.5 172.5Q84 365 84 711Q84 1058 263.0 1244.0Q442 1430 782 1430Q1030 1430 1186.0 1330.5Q1342 1231 1405 1038L1145 967Q1112 1073 1015.5 1135.5Q919 1198 788 1198Q588 1198 484.5 1074.0Q381 950 381 711Q381 468 487.5 340.0Q594 212 795 212Z"/><path id="b17" d="M780 0V607Q780 892 616 892Q531 892 477.5 805.0Q424 718 424 580V0H143V840Q143 927 140.5 982.5Q138 1038 135 1082H403Q406 1063 411.0 980.5Q416 898 416 867H420Q472 991 549.5 1047.0Q627 1103 735 1103Q983 1103 1036 867H1042Q1097 993 1174.0 1048.0Q1251 1103 1370 1103Q1528 1103 1611.0 995.5Q1694 888 1694 687V0H1415V607Q1415 892 1251 892Q1169 892 1116.5 812.5Q1064 733 1059 593V0Z"/><path id="b18" d="M1167 546Q1167 275 1058.5 127.5Q950 -20 752 -20Q638 -20 553.5 29.5Q469 79 424 172H418Q424 142 424 -10V-425H143V833Q143 986 135 1082H408Q413 1064 416.5 1011.0Q420 958 420 906H424Q519 1105 770 1105Q959 1105 1063.0 959.5Q1167 814 1167 546ZM874 546Q874 910 651 910Q539 910 479.5 812.0Q420 714 420 538Q420 363 479.5 267.5Q539 172 649 172Q874 172 874 546Z"/><path id="b19" d="M408 1082V475Q408 190 600 190Q702 190 764.5 277.5Q827 365 827 502V1082H1108V242Q1108 104 1116 0H848Q836 144 836 215H831Q775 92 688.5 36.0Q602 -20 483 -20Q311 -20 219.0 85.5Q127 191 127 395V1082Z"/><path id="b20" d="M420 -18Q296 -18 229.0 49.5Q162 117 162 254V892H25V1082H176L264 1336H440V1082H645V892H440V330Q440 251 470.0 213.5Q500 176 563 176Q596 176 657 190V16Q553 -18 420 -18Z"/><path id="b21" d="M1386 402Q1386 210 1242.0 105.0Q1098 0 842 0H137V1409H782Q1040 1409 1172.5 1319.5Q1305 1230 1305 1055Q1305 935 1238.5 852.5Q1172 770 1036 741Q1207 721 1296.5 633.5Q1386 546 1386 402ZM1008 1015Q1008 1110 947.5 1150.0Q887 1190 768 1190H432V841H770Q895 841 951.5 884.5Q1008 928 1008 1015ZM1090 425Q1090 623 806 623H432V219H817Q959 219 1024.5 270.5Q1090 322 1090 425Z"/><path id="b22" d="M844 0Q840 15 834.5 75.5Q829 136 829 176H825Q734 -20 479 -20Q290 -20 187.0 127.5Q84 275 84 540Q84 809 192.5 955.5Q301 1102 500 1102Q615 1102 698.5 1054.0Q782 1006 827 911H829L827 1089V1484H1108V236Q1108 136 1116 0ZM831 547Q831 722 772.5 816.5Q714 911 600 911Q487 911 432.0 819.5Q377 728 377 540Q377 172 598 172Q709 172 770.0 269.5Q831 367 831 547Z"/><path id="b23" d="M197 752V1034H485V752ZM197 0V281H485V0Z"/><path id="b24" d="M420 866Q477 990 563.0 1046.0Q649 1102 768 1102Q940 1102 1032.0 996.0Q1124 890 1124 686V0H844V606Q844 891 651 891Q549 891 486.5 803.5Q424 716 424 579V0H143V1484H424V1079Q424 970 416 866Z"/><path id="b25" d="M1313 0H1016L844 660Q832 705 797 882L745 658L571 0H274L-6 1082H258L436 255L450 329L475 446L645 1082H946L1112 446Q1126 394 1153 255L1181 387L1337 1082H1597Z"/><path id="b26" d="M143 1277V1484H424V1277ZM143 0V1082H424V0Z"/><path id="b27" d="M1055 316Q1055 159 926.5 69.5Q798 -20 571 -20Q348 -20 229.5 50.5Q111 121 72 270L319 307Q340 230 391.5 198.0Q443 166 571 166Q689 166 743.0 196.0Q797 226 797 290Q797 342 753.5 372.5Q710 403 606 424Q368 471 285.0 511.5Q202 552 158.5 616.5Q115 681 115 775Q115 930 234.5 1016.5Q354 1103 573 1103Q766 1103 883.5 1028.0Q1001 953 1030 811L781 785Q769 851 722.0 883.5Q675 916 573 916Q473 916 423.0 890.5Q373 865 373 805Q373 758 411.5 730.5Q450 703 541 685Q668 659 766.5 631.5Q865 604 924.5 566.0Q984 528 1019.5 468.5Q1055 409 1055 316Z"/><path id="b28" d="M71 0V195Q126 316 227.5 431.0Q329 546 483 671Q631 791 690.5 869.0Q750 947 750 1022Q750 1206 565 1206Q475 1206 427.5 1157.5Q380 1109 366 1012L83 1028Q107 1224 229.5 1327.0Q352 1430 563 1430Q791 1430 913.0 1326.0Q1035 1222 1035 1034Q1035 935 996.0 855.0Q957 775 896.0 707.5Q835 640 760.5 581.0Q686 522 616.0 466.0Q546 410 488.5 353.0Q431 296 403 231H1057V0Z"/><path id="b29" d="M1065 391Q1065 193 935.0 85.0Q805 -23 565 -23Q338 -23 204.0 81.5Q70 186 47 383L333 408Q360 205 564 205Q665 205 721.0 255.0Q777 305 777 408Q777 502 709.0 552.0Q641 602 507 602H409V829H501Q622 829 683.0 878.5Q744 928 744 1020Q744 1107 695.5 1156.5Q647 1206 554 1206Q467 1206 413.5 1158.0Q360 1110 352 1022L71 1042Q93 1224 222.0 1327.0Q351 1430 559 1430Q780 1430 904.5 1330.5Q1029 1231 1029 1055Q1029 923 951.5 838.0Q874 753 728 725V721Q890 702 977.5 614.5Q1065 527 1065 391Z"/><path id="b30" d="M940 287V0H672V287H31V498L626 1409H940V496H1128V287ZM672 957Q672 1011 675.5 1074.0Q679 1137 681 1155Q655 1099 587 993L260 496H672Z"/><path id="b31" d="M1082 469Q1082 245 942.5 112.5Q803 -20 560 -20Q348 -20 220.5 75.5Q93 171 63 352L344 375Q366 285 422.0 244.0Q478 203 563 203Q668 203 730.5 270.0Q793 337 793 463Q793 574 734.0 640.5Q675 707 569 707Q452 707 378 616H104L153 1409H1000V1200H408L385 844Q487 934 640 934Q841 934 961.5 809.0Q1082 684 1082 469Z"/><path id="b32" d="M1065 461Q1065 236 939.0 108.0Q813 -20 591 -20Q342 -20 208.5 154.5Q75 329 75 672Q75 1049 210.5 1239.5Q346 1430 598 1430Q777 1430 880.5 1351.0Q984 1272 1027 1106L762 1069Q724 1208 592 1208Q479 1208 414.5 1095.0Q350 982 350 752Q395 827 475.0 867.0Q555 907 656 907Q845 907 955.0 787.0Q1065 667 1065 461ZM783 453Q783 573 727.5 636.5Q672 700 575 700Q482 700 426.0 640.5Q370 581 370 483Q370 360 428.5 279.5Q487 199 582 199Q677 199 730.0 266.5Q783 334 783 453Z"/><path id="b33" d="M596 -434Q398 -434 277.5 -358.5Q157 -283 129 -143L410 -110Q425 -175 474.5 -212.0Q524 -249 604 -249Q721 -249 775.0 -177.0Q829 -105 829 37V94L831 201H829Q736 2 481 2Q292 2 188.0 144.0Q84 286 84 550Q84 815 191.0 959.0Q298 1103 502 1103Q738 1103 829 908H834Q834 943 838.5 1003.0Q843 1063 848 1082H1114Q1108 974 1108 832V33Q1108 -198 977.0 -316.0Q846 -434 596 -434ZM831 556Q831 723 771.5 816.5Q712 910 602 910Q377 910 377 550Q377 197 600 197Q712 197 771.5 290.5Q831 384 831 556Z"/><path id="b34" d="M432 66Q432 -54 406.5 -146.0Q381 -238 324 -317H139Q198 -246 235.0 -161.0Q272 -76 272 0H143V305H432Z"/><path id="b35" d="M844 0V607Q844 892 651 892Q549 892 486.5 804.5Q424 717 424 580V0H143V840Q143 927 140.5 982.5Q138 1038 135 1082H403Q406 1063 411.0 980.5Q416 898 416 867H420Q477 991 563.0 1047.0Q649 1103 768 1103Q940 1103 1032.0 997.0Q1124 891 1124 687V0Z"/><path id="b36" d="M731 0H395L8 1082H305L494 477Q509 427 565 227Q575 268 606.0 371.0Q637 474 836 1082H1130Z"/><path id="b37" d="M834 0 545 490 424 406V0H143V1484H424V634L810 1082H1112L732 660L1141 0Z"/><path id="b38" d="M139 0V305H428V0Z"/><path id="r39" d="M1167 0 1006 412H364L202 0H4L579 1409H796L1362 0ZM685 1265 676 1237Q651 1154 602 1024L422 561H949L768 1026Q740 1095 712 1182Z"/><path id="r40" d="M275 546Q275 330 343.0 226.0Q411 122 548 122Q644 122 708.5 174.0Q773 226 788 334L970 322Q949 166 837.0 73.0Q725 -20 553 -20Q326 -20 206.5 123.5Q87 267 87 542Q87 815 207.0 958.5Q327 1102 551 1102Q717 1102 826.5 1016.0Q936 930 964 779L779 765Q765 855 708.0 908.0Q651 961 546 961Q403 961 339.0 866.0Q275 771 275 546Z"/><path id="r41" d="M1053 542Q1053 258 928.0 119.0Q803 -20 565 -20Q328 -20 207.0 124.5Q86 269 86 542Q86 1102 571 1102Q819 1102 936.0 965.5Q1053 829 1053 542ZM864 542Q864 766 797.5 867.5Q731 969 574 969Q416 969 345.5 865.5Q275 762 275 542Q275 328 344.5 220.5Q414 113 563 113Q725 113 794.5 217.0Q864 321 864 542Z"/><path id="r42" d="M142 0V830Q142 944 136 1082H306Q314 898 314 861H318Q361 1000 417.0 1051.0Q473 1102 575 1102Q611 1102 648 1092V927Q612 937 552 937Q440 937 381.0 840.5Q322 744 322 564V0Z"/><path id="r43" d="M825 0V686Q825 793 804.0 852.0Q783 911 737.0 937.0Q691 963 602 963Q472 963 397.0 874.0Q322 785 322 627V0H142V851Q142 1040 136 1082H306Q307 1077 308.0 1055.0Q309 1033 310.5 1004.5Q312 976 314 897H317Q379 1009 460.5 1055.5Q542 1102 663 1102Q841 1102 923.5 1013.5Q1006 925 1006 721V0Z"/><path id="r44" d="M554 8Q465 -16 372 -16Q156 -16 156 229V951H31V1082H163L216 1324H336V1082H536V951H336V268Q336 190 361.5 158.5Q387 127 450 127Q486 127 554 141Z"/><path id="r45" d="M314 1082V396Q314 289 335.0 230.0Q356 171 402.0 145.0Q448 119 537 119Q667 119 742.0 208.0Q817 297 817 455V1082H997V231Q997 42 1003 0H833Q832 5 831.0 27.0Q830 49 828.5 77.5Q827 106 825 185H822Q760 73 678.5 26.5Q597 -20 476 -20Q298 -20 215.5 68.5Q133 157 133 361V1082Z"/><path id="r46" d="M276 503Q276 317 353.0 216.0Q430 115 578 115Q695 115 765.5 162.0Q836 209 861 281L1019 236Q922 -20 578 -20Q338 -20 212.5 123.0Q87 266 87 548Q87 816 212.5 959.0Q338 1102 571 1102Q1048 1102 1048 527V503ZM862 641Q847 812 775.0 890.5Q703 969 568 969Q437 969 360.5 881.5Q284 794 278 641Z"/><path id="r47" d="M821 174Q771 70 688.5 25.0Q606 -20 484 -20Q279 -20 182.5 118.0Q86 256 86 536Q86 1102 484 1102Q607 1102 689.0 1057.0Q771 1012 821 914H823L821 1035V1484H1001V223Q1001 54 1007 0H835Q832 16 828.5 74.0Q825 132 825 174ZM275 542Q275 315 335.0 217.0Q395 119 530 119Q683 119 752.0 225.0Q821 331 821 554Q821 769 752.0 869.0Q683 969 532 969Q396 969 335.5 868.5Q275 768 275 542Z"/><path id="r48" d="M950 299Q950 146 834.5 63.0Q719 -20 511 -20Q309 -20 199.5 46.5Q90 113 57 254L216 285Q239 198 311.0 157.5Q383 117 511 117Q648 117 711.5 159.0Q775 201 775 285Q775 349 731.0 389.0Q687 429 589 455L460 489Q305 529 239.5 567.5Q174 606 137.0 661.0Q100 716 100 796Q100 944 205.5 1021.5Q311 1099 513 1099Q692 1099 797.5 1036.0Q903 973 931 834L769 814Q754 886 688.5 924.5Q623 963 513 963Q391 963 333.0 926.0Q275 889 275 814Q275 768 299.0 738.0Q323 708 370.0 687.0Q417 666 568 629Q711 593 774.0 562.5Q837 532 873.5 495.0Q910 458 930.0 409.5Q950 361 950 299Z"/><path id="r49" d="M137 1312V1484H317V1312ZM137 0V1082H317V0Z"/><path id="r50" d="M1053 546Q1053 -20 655 -20Q405 -20 319 168H314Q318 160 318 -2V-425H138V861Q138 1028 132 1082H306Q307 1078 309.0 1053.5Q311 1029 313.5 978.0Q316 927 316 908H320Q368 1008 447.0 1054.5Q526 1101 655 1101Q855 1101 954.0 967.0Q1053 833 1053 546ZM864 542Q864 768 803.0 865.0Q742 962 609 962Q502 962 441.5 917.0Q381 872 349.5 776.5Q318 681 318 528Q318 315 386.0 214.0Q454 113 607 113Q741 113 802.5 211.5Q864 310 864 542Z"/><path id="r51" d="M385 219V51Q385 -55 366.0 -126.0Q347 -197 307 -262H184Q278 -126 278 0H190V219Z"/><path id="r52" d="M1366 0V940Q1366 1096 1375 1240Q1326 1061 1287 960L923 0H789L420 960L364 1130L331 1240L334 1129L338 940V0H168V1409H419L794 432Q814 373 832.5 305.5Q851 238 857 208Q865 248 890.5 329.5Q916 411 925 432L1293 1409H1538V0Z"/><path id="r53" d="M187 0V219H382V0Z"/><path id="r54" d="M103 0V127Q154 244 227.5 333.5Q301 423 382.0 495.5Q463 568 542.5 630.0Q622 692 686.0 754.0Q750 816 789.5 884.0Q829 952 829 1038Q829 1154 761.0 1218.0Q693 1282 572 1282Q457 1282 382.5 1219.5Q308 1157 295 1044L111 1061Q131 1230 254.5 1330.0Q378 1430 572 1430Q785 1430 899.5 1329.5Q1014 1229 1014 1044Q1014 962 976.5 881.0Q939 800 865.0 719.0Q791 638 582 468Q467 374 399.0 298.5Q331 223 301 153H1036V0Z"/><path id="r55" d="M548 -425Q371 -425 266.0 -355.5Q161 -286 131 -158L312 -132Q330 -207 391.5 -247.5Q453 -288 553 -288Q822 -288 822 27V201H820Q769 97 680.0 44.5Q591 -8 472 -8Q273 -8 179.5 124.0Q86 256 86 539Q86 826 186.5 962.5Q287 1099 492 1099Q607 1099 691.5 1046.5Q776 994 822 897H824Q824 927 828.0 1001.0Q832 1075 836 1082H1007Q1001 1028 1001 858V31Q1001 -425 548 -425ZM822 541Q822 673 786.0 768.5Q750 864 684.5 914.5Q619 965 536 965Q398 965 335.0 865.0Q272 765 272 541Q272 319 331.0 222.0Q390 125 533 125Q618 125 684.0 175.0Q750 225 786.0 318.5Q822 412 822 541Z"/><path id="r56" d="M191 -425Q117 -425 67 -414V-279Q105 -285 151 -285Q319 -285 417 -38L434 5L5 1082H197L425 484Q430 470 437.0 450.5Q444 431 482.0 320.0Q520 209 523 196L593 393L830 1082H1020L604 0Q537 -173 479.0 -257.5Q421 -342 350.5 -383.5Q280 -425 191 -425Z"/><path id="r57" d="M138 0V1484H318V0Z"/><path id="r58" d="M361 951V0H181V951H29V1082H181V1204Q181 1352 246.0 1417.0Q311 1482 445 1482Q520 1482 572 1470V1333Q527 1341 492 1341Q423 1341 392.0 1306.0Q361 1271 361 1179V1082H572V951Z"/><path id="r59" d="M1049 389Q1049 194 925.0 87.0Q801 -20 571 -20Q357 -20 229.5 76.5Q102 173 78 362L264 379Q300 129 571 129Q707 129 784.5 196.0Q862 263 862 395Q862 510 773.5 574.5Q685 639 518 639H416V795H514Q662 795 743.5 859.5Q825 924 825 1038Q825 1151 758.5 1216.5Q692 1282 561 1282Q442 1282 368.5 1221.0Q295 1160 283 1049L102 1063Q122 1236 245.5 1333.0Q369 1430 563 1430Q775 1430 892.5 1331.5Q1010 1233 1010 1057Q1010 922 934.5 837.5Q859 753 715 723V719Q873 702 961.0 613.0Q1049 524 1049 389Z"/><path id="r60" d="M782 0H584L9 1409H210L600 417L684 168L768 417L1156 1409H1357Z"/><path id="r61" d="M768 0V686Q768 843 725.0 903.0Q682 963 570 963Q455 963 388.0 875.0Q321 787 321 627V0H142V851Q142 1040 136 1082H306Q307 1077 308.0 1055.0Q309 1033 310.5 1004.5Q312 976 314 897H317Q375 1012 450.0 1057.0Q525 1102 633 1102Q756 1102 827.5 1053.0Q899 1004 927 897H930Q986 1006 1065.5 1054.0Q1145 1102 1258 1102Q1422 1102 1496.5 1013.0Q1571 924 1571 721V0H1393V686Q1393 843 1350.0 903.0Q1307 963 1195 963Q1077 963 1011.5 875.5Q946 788 946 627V0Z"/><path id="r62" d="M317 897Q375 1003 456.5 1052.5Q538 1102 663 1102Q839 1102 922.5 1014.5Q1006 927 1006 721V0H825V686Q825 800 804.0 855.5Q783 911 735.0 937.0Q687 963 602 963Q475 963 398.5 875.0Q322 787 322 638V0H142V1484H322V1098Q322 1037 318.5 972.0Q315 907 314 897Z"/><path id="r63" d="M187 875V1082H382V875ZM187 0V207H382V0Z"/><path id="r64" d="M613 0H400L7 1082H199L437 378Q450 338 506 141L541 258L580 376L826 1082H1017Z"/><path id="r65" d="M414 -20Q251 -20 169.0 66.0Q87 152 87 302Q87 470 197.5 560.0Q308 650 554 656L797 660V719Q797 851 741.0 908.0Q685 965 565 965Q444 965 389.0 924.0Q334 883 323 793L135 810Q181 1102 569 1102Q773 1102 876.0 1008.5Q979 915 979 738V272Q979 192 1000.0 151.5Q1021 111 1080 111Q1106 111 1139 118V6Q1071 -10 1000 -10Q900 -10 854.5 42.5Q809 95 803 207H797Q728 83 636.5 31.5Q545 -20 414 -20ZM455 115Q554 115 631.0 160.0Q708 205 752.5 283.5Q797 362 797 445V534L600 530Q473 528 407.5 504.0Q342 480 307.0 430.0Q272 380 272 299Q272 211 319.5 163.0Q367 115 455 115Z"/><path id="b66" d="M995 0 381 1085Q399 927 399 831V0H137V1409H474L1097 315Q1079 466 1079 590V1409H1341V0Z"/><path id="b67" d="M1393 715Q1393 497 1307.5 334.5Q1222 172 1065.5 86.0Q909 0 707 0H137V1409H647Q1003 1409 1198.0 1229.5Q1393 1050 1393 715ZM1096 715Q1096 942 978.0 1061.5Q860 1181 641 1181H432V228H682Q872 228 984.0 359.0Q1096 490 1096 715Z"/><path id="b68" d="M1112 0 606 647 432 514V0H137V1409H432V770L1067 1409H1411L809 813L1460 0Z"/><path id="b69" d="M1507 711Q1507 491 1420.0 324.0Q1333 157 1171.0 68.5Q1009 -20 793 -20Q461 -20 272.5 175.5Q84 371 84 711Q84 1050 272.0 1240.0Q460 1430 795 1430Q1130 1430 1318.5 1238.0Q1507 1046 1507 711ZM1206 711Q1206 939 1098.0 1068.5Q990 1198 795 1198Q597 1198 489.0 1069.5Q381 941 381 711Q381 479 491.5 345.5Q602 212 793 212Q991 212 1098.5 342.0Q1206 472 1206 711Z"/><path id="b70" d="M1307 0V854Q1307 883 1307.5 912.0Q1308 941 1317 1161Q1246 892 1212 786L958 0H748L494 786L387 1161Q399 929 399 854V0H137V1409H532L784 621L806 545L854 356L917 582L1176 1409H1569V0Z"/><path id="b71" d="M1286 406Q1286 199 1132.5 89.5Q979 -20 682 -20Q411 -20 257.0 76.0Q103 172 59 367L344 414Q373 302 457.0 251.5Q541 201 690 201Q999 201 999 389Q999 449 963.5 488.0Q928 527 863.5 553.0Q799 579 616 616Q458 653 396.0 675.5Q334 698 284.0 728.5Q234 759 199.0 802.0Q164 845 144.5 903.0Q125 961 125 1036Q125 1227 268.5 1328.5Q412 1430 686 1430Q948 1430 1079.5 1348.0Q1211 1266 1249 1077L963 1038Q941 1129 873.5 1175.0Q806 1221 680 1221Q412 1221 412 1053Q412 998 440.5 963.0Q469 928 525.0 903.5Q581 879 752 842Q955 799 1042.5 762.5Q1130 726 1181.0 677.5Q1232 629 1259.0 561.5Q1286 494 1286 406Z"/><path id="b72" d="M137 0V1409H432V0Z"/><path id="b73" d="M834 0H535L14 1409H322L612 504Q639 416 686 238L707 324L758 504L1047 1409H1352Z"/><path id="b74" d="M1567 0H1217L1026 815Q991 959 967 1116Q943 985 928.0 916.5Q913 848 715 0H365L2 1409H301L505 499L551 279Q579 418 605.5 544.5Q632 671 805 1409H1135L1313 659Q1334 575 1384 279L1409 395L1462 625L1632 1409H1931Z"/><path id="r75" d="M1511 0H1283L1039 895Q1015 979 969 1196Q943 1080 925.0 1002.0Q907 924 652 0H424L9 1409H208L461 514Q506 346 544 168Q568 278 599.5 408.0Q631 538 877 1409H1060L1305 532Q1361 317 1393 168L1402 203Q1429 318 1446.0 390.5Q1463 463 1727 1409H1926Z"/><path id="r76" d="M1174 0H965L776 765L740 934Q731 889 712.0 804.5Q693 720 508 0H300L-3 1082H175L358 347Q365 323 401 149L418 223L644 1082H837L1026 339L1072 149L1103 288L1308 1082H1484Z"/><path id="r77" d="M1053 546Q1053 -20 655 -20Q532 -20 450.5 24.5Q369 69 318 168H316Q316 137 312.0 73.5Q308 10 306 0H132Q138 54 138 223V1484H318V1061Q318 996 314 908H318Q368 1012 450.5 1057.0Q533 1102 655 1102Q860 1102 956.5 964.0Q1053 826 1053 546ZM864 540Q864 767 804.0 865.0Q744 963 609 963Q457 963 387.5 859.0Q318 755 318 529Q318 316 386.0 214.5Q454 113 607 113Q743 113 803.5 213.5Q864 314 864 540Z"/><path id="r78" d="M816 0 450 494 318 385V0H138V1484H318V557L793 1082H1004L565 617L1027 0Z"/><path id="r79" d="M792 1274Q558 1274 428.0 1123.5Q298 973 298 711Q298 452 433.5 294.5Q569 137 800 137Q1096 137 1245 430L1401 352Q1314 170 1156.5 75.0Q999 -20 791 -20Q578 -20 422.5 68.5Q267 157 185.5 321.5Q104 486 104 711Q104 1048 286.0 1239.0Q468 1430 790 1430Q1015 1430 1166.0 1342.0Q1317 1254 1388 1081L1207 1021Q1158 1144 1049.5 1209.0Q941 1274 792 1274Z"/><path id="r80" d="M266 966H125L104 1409H288Z"/><path id="r81" d="M156 0V153H515V1237L197 1010V1180L530 1409H696V153H1039V0Z"/><path id="r82" d="M720 1253V0H530V1253H46V1409H1204V1253Z"/></defs><rect width="780" height="470" fill="#fbfaf7"/><g transform="translate(30.0 34.0) scale(0.01270 -0.01270)" fill="#15181d" aria-label="P1 cable (JTAG) for a Compute Blade:"><use href="#b0"/><use href="#b1" x="1366"/><use href="#b2" x="3074"/><use href="#b3" x="4213"/><use href="#b4" x="5352"/><use href="#b5" x="6603"/><use href="#b6" x="7172"/><use href="#b7" x="8880"/><use href="#b8" x="9562"/><use href="#b9" x="10701"/><use href="#b10" x="11952"/><use href="#b11" x="13431"/><use href="#b12" x="15024"/><use href="#b13" x="16275"/><use href="#b14" x="16957"/><use href="#b15" x="18208"/><use href="#b3" x="19574"/><use href="#b16" x="21282"/><use href="#b14" x="22761"/><use href="#b17" x="24012"/><use href="#b18" x="25833"/><use href="#b19" x="27084"/><use href="#b20" x="28335"/><use href="#b6" x="29017"/><use href="#b21" x="30725"/><use href="#b5" x="32204"/><use href="#b3" x="32773"/><use href="#b22" x="33912"/><use href="#b6" x="35163"/><use href="#b23" x="36302"/></g><g transform="translate(30.0 58.0) scale(0.00928 -0.00928)" fill="#5b6470" aria-label="prepare the wires"><use href="#b18"/><use href="#b15" x="1251"/><use href="#b6" x="2048"/><use href="#b18" x="3187"/><use href="#b3" x="4438"/><use href="#b15" x="5577"/><use href="#b6" x="6374"/><use href="#b20" x="8082"/><use href="#b24" x="8764"/><use href="#b6" x="10015"/><use href="#b25" x="11723"/><use href="#b26" x="13316"/><use href="#b15" x="13885"/><use href="#b6" x="14682"/><use href="#b27" x="15821"/></g><line x1="30" y1="70" x2="770" y2="70" stroke="#15181d" stroke-width="1.5"/><rect x="130.0" y="92.0" width="368.0" height="58.0" rx="7" fill="#1d1f23" stroke="none" stroke-width="1" /><rect x="138.0" y="138.0" width="352.0" height="12.0" rx="0" fill="#3a3d42" stroke="none" stroke-width="1" /><rect x="149.0" y="101.0" width="30.0" height="30.0" rx="4" fill="#e2b33c" stroke="#1d1f23" stroke-width="1.5" /><g transform="translate(158.2 123.5) scale(0.01025 -0.01025)" fill="#1d1f23" aria-label="1"><use href="#b1"/></g><rect x="209.0" y="101.0" width="30.0" height="30.0" rx="4" fill="#e2b33c" stroke="#1d1f23" stroke-width="1.5" /><g transform="translate(218.2 123.5) scale(0.01025 -0.01025)" fill="#1d1f23" aria-label="2"><use href="#b28"/></g><rect x="269.0" y="101.0" width="30.0" height="30.0" rx="4" fill="#e2b33c" stroke="#1d1f23" stroke-width="1.5" /><g transform="translate(278.2 123.5) scale(0.01025 -0.01025)" fill="#1d1f23" aria-label="3"><use href="#b29"/></g><rect x="329.0" y="101.0" width="30.0" height="30.0" rx="4" fill="#e2b33c" stroke="#1d1f23" stroke-width="1.5" /><g transform="translate(338.2 123.5) scale(0.01025 -0.01025)" fill="#1d1f23" aria-label="4"><use href="#b30"/></g><rect x="389.0" y="101.0" width="30.0" height="30.0" rx="4" fill="#e2b33c" stroke="#1d1f23" stroke-width="1.5" /><g transform="translate(398.2 123.5) scale(0.01025 -0.01025)" fill="#1d1f23" aria-label="5"><use href="#b31"/></g><rect x="449.0" y="101.0" width="30.0" height="30.0" rx="4" fill="#e2b33c" stroke="#1d1f23" stroke-width="1.5" /><g transform="translate(458.2 123.5) scale(0.01025 -0.01025)" fill="#1d1f23" aria-label="6"><use href="#b32"/></g><g transform="translate(512.0 112.0) scale(0.00830 -0.00830)" fill="#15181d" aria-label="The plug, seen from above"><use href="#b9"/><use href="#b24" x="1251"/><use href="#b6" x="2502"/><use href="#b18" x="4210"/><use href="#b5" x="5461"/><use href="#b19" x="6030"/><use href="#b33" x="7281"/><use href="#b34" x="8532"/><use href="#b27" x="9670"/><use href="#b6" x="10809"/><use href="#b6" x="11948"/><use href="#b35" x="13087"/><use href="#b13" x="14907"/><use href="#b15" x="15589"/><use href="#b14" x="16386"/><use href="#b17" x="17637"/><use href="#b3" x="20027"/><use href="#b4" x="21166"/><use href="#b14" x="22417"/><use href="#b36" x="23668"/><use href="#b6" x="24807"/></g><g transform="translate(512.0 134.0) scale(0.00830 -0.00830)" fill="#15181d" aria-label="as it sits in the socket."><use href="#b3"/><use href="#b27" x="1139"/><use href="#b26" x="2847"/><use href="#b20" x="3416"/><use href="#b27" x="4667"/><use href="#b26" x="5806"/><use href="#b20" x="6375"/><use href="#b27" x="7057"/><use href="#b26" x="8765"/><use href="#b35" x="9334"/><use href="#b20" x="11154"/><use href="#b24" x="11836"/><use href="#b6" x="13087"/><use href="#b27" x="14795"/><use href="#b14" x="15934"/><use href="#b2" x="17185"/><use href="#b37" x="18324"/><use href="#b6" x="19463"/><use href="#b20" x="20602"/><use href="#b38" x="21284"/></g><g transform="translate(512.0 156.0) scale(0.00830 -0.00830)" fill="#15181d" aria-label="Acorn turned underside up, M.2"><use href="#r39"/><use href="#r40" x="1366"/><use href="#r41" x="2390"/><use href="#r42" x="3529"/><use href="#r43" x="4211"/><use href="#r44" x="5919"/><use href="#r45" x="6488"/><use href="#r42" x="7627"/><use href="#r43" x="8309"/><use href="#r46" x="9448"/><use href="#r47" x="10587"/><use href="#r45" x="12295"/><use href="#r43" x="13434"/><use href="#r47" x="14573"/><use href="#r46" x="15712"/><use href="#r42" x="16851"/><use href="#r48" x="17533"/><use href="#r49" x="18557"/><use href="#r47" x="19012"/><use href="#r46" x="20151"/><use href="#r45" x="21859"/><use href="#r50" x="22998"/><use href="#r51" x="24137"/><use href="#r52" x="25275"/><use href="#r53" x="26981"/><use href="#r54" x="27550"/></g><g transform="translate(512.0 178.0) scale(0.00830 -0.00830)" fill="#15181d" aria-label="edge to your left."><use href="#r46"/><use href="#r47" x="1139"/><use href="#r55" x="2278"/><use href="#r46" x="3417"/><use href="#r44" x="5125"/><use href="#r41" x="5694"/><use href="#r56" x="7402"/><use href="#r41" x="8426"/><use href="#r45" x="9565"/><use href="#r42" x="10704"/><use href="#r57" x="11955"/><use href="#r46" x="12410"/><use href="#r58" x="13549"/><use href="#r44" x="14118"/><use href="#r53" x="14687"/></g><line x1="464" y1="150" x2="464" y2="198" stroke="#c62828" stroke-width="5.5"/><rect x="456.0" y="192.0" width="16.0" height="28.0" rx="5" fill="#c62828" stroke="#15181d" stroke-width="1.5" /><g transform="translate(484.0 207.0) scale(0.00830 -0.00830)" fill="#c62828" aria-label="wire 6: cut back, heat shrink over"><use href="#b25"/><use href="#b26" x="1593"/><use href="#b15" x="2162"/><use href="#b6" x="2959"/><use href="#b32" x="4667"/><use href="#b23" x="5806"/><use href="#b2" x="7057"/><use href="#b19" x="8196"/><use href="#b20" x="9447"/><use href="#b4" x="10698"/><use href="#b3" x="11949"/><use href="#b2" x="13088"/><use href="#b37" x="14227"/><use href="#b34" x="15366"/><use href="#b24" x="16504"/><use href="#b6" x="17755"/><use href="#b3" x="18894"/><use href="#b20" x="20033"/><use href="#b27" x="21284"/><use href="#b24" x="22423"/><use href="#b15" x="23674"/><use href="#b26" x="24471"/><use href="#b35" x="25040"/><use href="#b37" x="26291"/><use href="#b14" x="27999"/><use href="#b36" x="29250"/><use href="#b6" x="30389"/><use href="#b15" x="31528"/></g><g transform="translate(484.0 229.0) scale(0.00830 -0.00830)" fill="#c62828" aria-label="the end"><use href="#b20"/><use href="#b24" x="682"/><use href="#b6" x="1933"/><use href="#b6" x="3641"/><use href="#b35" x="4780"/><use href="#b22" x="6031"/></g><g transform="translate(484.0 251.0) scale(0.00830 -0.00830)" fill="#c62828" aria-label="3.3 V from the Acorn: it must never"><use href="#r59"/><use href="#r53" x="1139"/><use href="#r59" x="1708"/><use href="#r60" x="3416"/><use href="#r58" x="5351"/><use href="#r42" x="5920"/><use href="#r41" x="6602"/><use href="#r61" x="7741"/><use href="#r44" x="10016"/><use href="#r62" x="10585"/><use href="#r46" x="11724"/><use href="#r39" x="13432"/><use href="#r40" x="14798"/><use href="#r41" x="15822"/><use href="#r42" x="16961"/><use href="#r43" x="17643"/><use href="#r63" x="18782"/><use href="#r49" x="19920"/><use href="#r44" x="20375"/><use href="#r61" x="21513"/><use href="#r45" x="23219"/><use href="#r48" x="24358"/><use href="#r44" x="25382"/><use href="#r43" x="26520"/><use href="#r46" x="27659"/><use href="#r64" x="28798"/><use href="#r46" x="29822"/><use href="#r42" x="30961"/></g><g transform="translate(484.0 273.0) scale(0.00830 -0.00830)" fill="#c62828" aria-label="reach the host."><use href="#r42"/><use href="#r46" x="682"/><use href="#r65" x="1821"/><use href="#r40" x="2960"/><use href="#r62" x="3984"/><use href="#r44" x="5692"/><use href="#r62" x="6261"/><use href="#r46" x="7400"/><use href="#r62" x="9108"/><use href="#r41" x="10247"/><use href="#r48" x="11386"/><use href="#r44" x="12410"/><use href="#r53" x="12979"/></g><line x1="164" y1="150" x2="164" y2="300" stroke="#15181d" stroke-width="5.5"/><g id="terminal-wire-1"><line x1="164" y1="300" x2="164" y2="308" stroke="#b87333" stroke-width="3"/><rect x="159.0" y="302.0" width="10.0" height="12.0" rx="2" fill="#c9a227" stroke="#15181d" stroke-width="1.2" /><rect x="157.0" y="314.0" width="14.0" height="30.0" rx="2" fill="#c9a227" stroke="#15181d" stroke-width="1.2" /><path d="M171,322 l5,3 v9 l-5,0 z" fill="#c9a227" stroke="#15181d" stroke-width="1.2"/><line x1="164" y1="297" x2="164" y2="300" stroke="#15181d" stroke-width="5.5"/></g><rect x="149.0" y="351.0" width="30.0" height="30.0" rx="4" fill="#e2b33c" stroke="#1d1f23" stroke-width="1.5" /><g transform="translate(158.2 373.5) scale(0.01025 -0.01025)" fill="#1d1f23" aria-label="1"><use href="#b1"/></g><line x1="224" y1="150" x2="224" y2="300" stroke="#546e7a" stroke-width="5.5"/><g id="terminal-wire-2"><line x1="224" y1="300" x2="224" y2="308" stroke="#b87333" stroke-width="3"/><rect x="219.0" y="302.0" width="10.0" height="12.0" rx="2" fill="#c9a227" stroke="#15181d" stroke-width="1.2" /><rect x="217.0" y="314.0" width="14.0" height="30.0" rx="2" fill="#c9a227" stroke="#15181d" stroke-width="1.2" /><path d="M231,322 l5,3 v9 l-5,0 z" fill="#c9a227" stroke="#15181d" stroke-width="1.2"/><line x1="224" y1="297" x2="224" y2="300" stroke="#546e7a" stroke-width="5.5"/></g><rect x="209.0" y="351.0" width="30.0" height="30.0" rx="4" fill="#e2b33c" stroke="#1d1f23" stroke-width="1.5" /><g transform="translate(218.2 373.5) scale(0.01025 -0.01025)" fill="#1d1f23" aria-label="2"><use href="#b28"/></g><line x1="284" y1="150" x2="284" y2="300" stroke="#2e7d32" stroke-width="5.5"/><g id="terminal-wire-3"><line x1="284" y1="300" x2="284" y2="308" stroke="#b87333" stroke-width="3"/><rect x="279.0" y="302.0" width="10.0" height="12.0" rx="2" fill="#c9a227" stroke="#15181d" stroke-width="1.2" /><rect x="277.0" y="314.0" width="14.0" height="30.0" rx="2" fill="#c9a227" stroke="#15181d" stroke-width="1.2" /><path d="M291,322 l5,3 v9 l-5,0 z" fill="#c9a227" stroke="#15181d" stroke-width="1.2"/><line x1="284" y1="297" x2="284" y2="300" stroke="#2e7d32" stroke-width="5.5"/></g><rect x="269.0" y="351.0" width="30.0" height="30.0" rx="4" fill="#e2b33c" stroke="#1d1f23" stroke-width="1.5" /><g transform="translate(278.2 373.5) scale(0.01025 -0.01025)" fill="#1d1f23" aria-label="3"><use href="#b29"/></g><line x1="344" y1="150" x2="344" y2="300" stroke="#d81b60" stroke-width="5.5"/><g id="terminal-wire-4"><line x1="344" y1="300" x2="344" y2="308" stroke="#b87333" stroke-width="3"/><rect x="339.0" y="302.0" width="10.0" height="12.0" rx="2" fill="#c9a227" stroke="#15181d" stroke-width="1.2" /><rect x="337.0" y="314.0" width="14.0" height="30.0" rx="2" fill="#c9a227" stroke="#15181d" stroke-width="1.2" /><path d="M351,322 l5,3 v9 l-5,0 z" fill="#c9a227" stroke="#15181d" stroke-width="1.2"/><line x1="344" y1="297" x2="344" y2="300" stroke="#d81b60" stroke-width="5.5"/></g><rect x="329.0" y="351.0" width="30.0" height="30.0" rx="4" fill="#e2b33c" stroke="#1d1f23" stroke-width="1.5" /><g transform="translate(338.2 373.5) scale(0.01025 -0.01025)" fill="#1d1f23" aria-label="4"><use href="#b30"/></g><line x1="404" y1="150" x2="404" y2="300" stroke="#d97706" stroke-width="5.5"/><g id="terminal-wire-5"><line x1="404" y1="300" x2="404" y2="308" stroke="#b87333" stroke-width="3"/><rect x="399.0" y="302.0" width="10.0" height="12.0" rx="2" fill="#c9a227" stroke="#15181d" stroke-width="1.2" /><rect x="397.0" y="314.0" width="14.0" height="30.0" rx="2" fill="#c9a227" stroke="#15181d" stroke-width="1.2" /><path d="M411,322 l5,3 v9 l-5,0 z" fill="#c9a227" stroke="#15181d" stroke-width="1.2"/><line x1="404" y1="297" x2="404" y2="300" stroke="#d97706" stroke-width="5.5"/></g><rect x="389.0" y="351.0" width="30.0" height="30.0" rx="4" fill="#e2b33c" stroke="#1d1f23" stroke-width="1.5" /><g transform="translate(398.2 373.5) scale(0.01025 -0.01025)" fill="#1d1f23" aria-label="5"><use href="#b31"/></g><rect x="140.1" y="162.0" width="47.8" height="24.0" rx="4" fill="#15181d" stroke="none" stroke-width="1" /><g transform="translate(145.1 179.9) scale(0.00830 -0.00830)" fill="#fff" aria-label="GND"><use href="#b11"/><use href="#b66" x="1593"/><use href="#b67" x="3072"/></g><rect x="201.5" y="162.0" width="44.9" height="24.0" rx="4" fill="#546e7a" stroke="none" stroke-width="1" /><g transform="translate(206.5 179.9) scale(0.00830 -0.00830)" fill="#fff" aria-label="TCK"><use href="#b9"/><use href="#b16" x="1251"/><use href="#b68" x="2730"/></g><rect x="261.1" y="162.0" width="45.9" height="24.0" rx="4" fill="#2e7d32" stroke="none" stroke-width="1" /><g transform="translate(266.1 179.9) scale(0.00830 -0.00830)" fill="#fff" aria-label="TDO"><use href="#b9"/><use href="#b67" x="1251"/><use href="#b69" x="2730"/></g><rect x="321.1" y="162.0" width="45.9" height="24.0" rx="4" fill="#d81b60" stroke="none" stroke-width="1" /><g transform="translate(326.1 179.9) scale(0.00830 -0.00830)" fill="#fff" aria-label="TMS"><use href="#b9"/><use href="#b70" x="1251"/><use href="#b71" x="2957"/></g><rect x="385.3" y="162.0" width="37.4" height="24.0" rx="4" fill="#d97706" stroke="none" stroke-width="1" /><g transform="translate(390.3 179.9) scale(0.00830 -0.00830)" fill="#fff" aria-label="TDI"><use href="#b9"/><use href="#b67" x="1251"/><use href="#b72" x="2730"/></g><rect x="441.1" y="162.0" width="45.9" height="24.0" rx="4" fill="#c62828" stroke="none" stroke-width="1" /><g transform="translate(446.1 179.9) scale(0.00830 -0.00830)" fill="#fff" aria-label="VCC"><use href="#b73"/><use href="#b16" x="1366"/><use href="#b16" x="2845"/></g><g transform="translate(30.0 404.0) scale(0.00830 -0.00830)" fill="#15181d" aria-label="Wires 1, 2, 3, 4 and 5: strip about 3 mm and crimp a terminal on each."><use href="#b74"/><use href="#b26" x="1933"/><use href="#b15" x="2502"/><use href="#b6" x="3299"/><use href="#b27" x="4438"/><use href="#b1" x="6146"/><use href="#b34" x="7285"/><use href="#b28" x="8423"/><use href="#b34" x="9562"/><use href="#b29" x="10700"/><use href="#b34" x="11839"/><use href="#b30" x="12977"/><use href="#b3" x="14685"/><use href="#b35" x="15824"/><use href="#b22" x="17075"/><use href="#b31" x="18895"/><use href="#b23" x="20034"/><use href="#b27" x="21285"/><use href="#b20" x="22424"/><use href="#b15" x="23106"/><use href="#b26" x="23903"/><use href="#b18" x="24472"/><use href="#b3" x="26292"/><use href="#b4" x="27431"/><use href="#b14" x="28682"/><use href="#b19" x="29933"/><use href="#b20" x="31184"/><use href="#b29" x="32435"/><use href="#b17" x="34143"/><use href="#b17" x="35964"/><use href="#b3" x="38354"/><use href="#b35" x="39493"/><use href="#b22" x="40744"/><use href="#b2" x="42564"/><use href="#b15" x="43703"/><use href="#b26" x="44500"/><use href="#b17" x="45069"/><use href="#b18" x="46890"/><use href="#b3" x="48710"/><use href="#b20" x="50418"/><use href="#b6" x="51100"/><use href="#b15" x="52239"/><use href="#b17" x="53036"/><use href="#b26" x="54857"/><use href="#b35" x="55426"/><use href="#b3" x="56677"/><use href="#b5" x="57816"/><use href="#b14" x="58954"/><use href="#b35" x="60205"/><use href="#b6" x="62025"/><use href="#b3" x="63164"/><use href="#b2" x="64303"/><use href="#b24" x="65442"/><use href="#b38" x="66693"/></g><g transform="translate(30.0 430.0) scale(0.00830 -0.00830)" fill="#15181d" aria-label="Wire colours are for this picture only: the real wires are all black. Count from the plug's pin 1 end."><use href="#r75"/><use href="#r49" x="1933"/><use href="#r42" x="2388"/><use href="#r46" x="3070"/><use href="#r40" x="4778"/><use href="#r41" x="5802"/><use href="#r57" x="6941"/><use href="#r41" x="7396"/><use href="#r45" x="8535"/><use href="#r42" x="9674"/><use href="#r48" x="10356"/><use href="#r65" x="11949"/><use href="#r42" x="13088"/><use href="#r46" x="13770"/><use href="#r58" x="15478"/><use href="#r41" x="16047"/><use href="#r42" x="17186"/><use href="#r44" x="18437"/><use href="#r62" x="19006"/><use href="#r49" x="20145"/><use href="#r48" x="20600"/><use href="#r50" x="22193"/><use href="#r49" x="23332"/><use href="#r40" x="23787"/><use href="#r44" x="24811"/><use href="#r45" x="25380"/><use href="#r42" x="26519"/><use href="#r46" x="27201"/><use href="#r41" x="28909"/><use href="#r43" x="30048"/><use href="#r57" x="31187"/><use href="#r56" x="31642"/><use href="#r63" x="32666"/><use href="#r44" x="33804"/><use href="#r62" x="34373"/><use href="#r46" x="35512"/><use href="#r42" x="37220"/><use href="#r46" x="37902"/><use href="#r65" x="39041"/><use href="#r57" x="40180"/><use href="#r76" x="41204"/><use href="#r49" x="42683"/><use href="#r42" x="43138"/><use href="#r46" x="43820"/><use href="#r48" x="44959"/><use href="#r65" x="46552"/><use href="#r42" x="47691"/><use href="#r46" x="48373"/><use href="#r65" x="50081"/><use href="#r57" x="51220"/><use href="#r57" x="51675"/><use href="#r77" x="52699"/><use href="#r57" x="53838"/><use href="#r65" x="54293"/><use href="#r40" x="55432"/><use href="#r78" x="56456"/><use href="#r53" x="57480"/><use href="#r79" x="58618"/><use href="#r41" x="60097"/><use href="#r45" x="61236"/><use href="#r43" x="62375"/><use href="#r44" x="63514"/><use href="#r58" x="64652"/><use href="#r42" x="65221"/><use href="#r41" x="65903"/><use href="#r61" x="67042"/><use href="#r44" x="69317"/><use href="#r62" x="69886"/><use href="#r46" x="71025"/><use href="#r50" x="72733"/><use href="#r57" x="73872"/><use href="#r45" x="74327"/><use href="#r55" x="75466"/><use href="#r80" x="76605"/><use href="#r48" x="76996"/><use href="#r50" x="78589"/><use href="#r49" x="79728"/><use href="#r43" x="80183"/><use href="#r81" x="81891"/><use href="#r46" x="83599"/><use href="#r43" x="84738"/><use href="#r47" x="85877"/><use href="#r53" x="87016"/></g><g transform="translate(30.0 456.0) scale(0.00830 -0.00830)" fill="#5b6470" aria-label="The terminals are sketched, not from a photograph."><use href="#r82"/><use href="#r62" x="1251"/><use href="#r46" x="2390"/><use href="#r44" x="4098"/><use href="#r46" x="4667"/><use href="#r42" x="5806"/><use href="#r61" x="6488"/><use href="#r49" x="8194"/><use href="#r43" x="8649"/><use href="#r65" x="9788"/><use href="#r57" x="10927"/><use href="#r48" x="11382"/><use href="#r65" x="12975"/><use href="#r42" x="14114"/><use href="#r46" x="14796"/><use href="#r48" x="16504"/><use href="#r78" x="17528"/><use href="#r46" x="18552"/><use href="#r44" x="19691"/><use href="#r40" x="20260"/><use href="#r62" x="21284"/><use href="#r46" x="22423"/><use href="#r47" x="23562"/><use href="#r51" x="24701"/><use href="#r43" x="25839"/><use href="#r41" x="26978"/><use href="#r44" x="28117"/><use href="#r58" x="29255"/><use href="#r42" x="29824"/><use href="#r41" x="30506"/><use href="#r61" x="31645"/><use href="#r65" x="33920"/><use href="#r50" x="35628"/><use href="#r62" x="36767"/><use href="#r41" x="37906"/><use href="#r44" x="39045"/><use href="#r41" x="39614"/><use href="#r55" x="40753"/><use href="#r42" x="41892"/><use href="#r65" x="42574"/><use href="#r50" x="43713"/><use href="#r62" x="44852"/><use href="#r53" x="45991"/></g></svg>